<svg width="145" height="103" viewBox="0 0 145 103" fill="none" xmlns="http://www.w3.org/2000/svg">
<g clip-path="url(#clip0)">
<path d="M58.19 2.03159C60.4628 2.03159 62.3782 3.64103 62.8634 5.93645C63.1699 7.33482 64.3957 8.33742 65.8003 8.33742H108.679C112.739 8.33742 116.034 11.741 116.034 15.9361V59.0479H30.9664V14.01V6.30583V3.74656C30.9664 2.79673 31.707 2.05797 32.6009 2.05797H58.19V2.03159ZM58.19 0H32.6264C30.6344 0 29 1.68859 29 3.74656V6.30583V14.01V60.0242C29 60.6046 29.4597 61.1059 30.0471 61.1059H116.978C117.54 61.1059 118.026 60.631 118.026 60.0242V15.9361C118.026 10.6065 113.837 6.30583 108.704 6.30583H65.8003C65.3406 6.30583 64.9065 5.98922 64.8043 5.51431C64.1148 2.37458 61.4333 0 58.19 0Z" fill="#252A49"/>
<path d="M113.607 71.0001H33.3925C30.9664 71.0001 29 68.9685 29 66.462V24.5111C29 18.4163 33.7756 13.4561 39.6749 13.4561H107.3C113.199 13.4561 117.974 18.3899 117.974 24.4847V66.4356C118 68.9685 116.034 71.0001 113.607 71.0001Z" fill="#252A49"/>
</g>
<path d="M25.4452 82.2V92H24.4232V87.478H18.2912V92H17.2552V82.2H18.2912V86.568H24.4232V82.2H25.4452ZM34.8459 88.626H28.6859C28.7419 89.3913 29.0359 90.012 29.5679 90.488C30.0999 90.9547 30.7719 91.188 31.5839 91.188C32.0412 91.188 32.4612 91.1087 32.8439 90.95C33.2265 90.782 33.5579 90.5393 33.8379 90.222L34.3979 90.866C34.0712 91.258 33.6605 91.5567 33.1659 91.762C32.6805 91.9673 32.1439 92.07 31.5559 92.07C30.7999 92.07 30.1279 91.9113 29.5399 91.594C28.9612 91.2673 28.5085 90.8193 28.1819 90.25C27.8552 89.6807 27.6919 89.0367 27.6919 88.318C27.6919 87.5993 27.8459 86.9553 28.1539 86.386C28.4712 85.8167 28.9005 85.3733 29.4419 85.056C29.9925 84.7387 30.6085 84.58 31.2899 84.58C31.9712 84.58 32.5825 84.7387 33.1239 85.056C33.6652 85.3733 34.0899 85.8167 34.3979 86.386C34.7059 86.946 34.8599 87.59 34.8599 88.318L34.8459 88.626ZM31.2899 85.434C30.5805 85.434 29.9832 85.6627 29.4979 86.12C29.0219 86.568 28.7512 87.156 28.6859 87.884H33.9079C33.8425 87.156 33.5672 86.568 33.0819 86.12C32.6059 85.6627 32.0085 85.434 31.2899 85.434ZM36.8831 81.612H37.8771V92H36.8831V81.612ZM46.8308 84.636L43.5548 92H42.5328L39.2708 84.636H40.3068L43.0648 90.908L45.8508 84.636H46.8308ZM54.4376 88.626H48.2776C48.3336 89.3913 48.6276 90.012 49.1596 90.488C49.6916 90.9547 50.3636 91.188 51.1756 91.188C51.633 91.188 52.053 91.1087 52.4356 90.95C52.8183 90.782 53.1496 90.5393 53.4296 90.222L53.9896 90.866C53.663 91.258 53.2523 91.5567 52.7576 91.762C52.2723 91.9673 51.7356 92.07 51.1476 92.07C50.3916 92.07 49.7196 91.9113 49.1316 91.594C48.553 91.2673 48.1003 90.8193 47.7736 90.25C47.447 89.6807 47.2836 89.0367 47.2836 88.318C47.2836 87.5993 47.4376 86.9553 47.7456 86.386C48.063 85.8167 48.4923 85.3733 49.0336 85.056C49.5843 84.7387 50.2003 84.58 50.8816 84.58C51.563 84.58 52.1743 84.7387 52.7156 85.056C53.257 85.3733 53.6816 85.8167 53.9896 86.386C54.2976 86.946 54.4516 87.59 54.4516 88.318L54.4376 88.626ZM50.8816 85.434C50.1723 85.434 49.575 85.6627 49.0896 86.12C48.6136 86.568 48.343 87.156 48.2776 87.884H53.4996C53.4343 87.156 53.159 86.568 52.6736 86.12C52.1976 85.6627 51.6003 85.434 50.8816 85.434ZM60.3529 91.552C60.1662 91.72 59.9329 91.8507 59.6529 91.944C59.3822 92.028 59.0975 92.07 58.7989 92.07C58.1082 92.07 57.5762 91.8833 57.2029 91.51C56.8295 91.1367 56.6429 90.6093 56.6429 89.928V85.476H55.3269V84.636H56.6429V83.026H57.6369V84.636H59.8769V85.476H57.6369V89.872C57.6369 90.3107 57.7442 90.6467 57.9589 90.88C58.1829 91.104 58.5002 91.216 58.9109 91.216C59.1162 91.216 59.3122 91.1833 59.4989 91.118C59.6949 91.0527 59.8629 90.9593 60.0029 90.838L60.3529 91.552ZM62.1624 84.636H63.1564V92H62.1624V84.636ZM62.6664 83.026C62.461 83.026 62.2884 82.956 62.1484 82.816C62.0084 82.676 61.9384 82.508 61.9384 82.312C61.9384 82.1253 62.0084 81.962 62.1484 81.822C62.2884 81.682 62.461 81.612 62.6664 81.612C62.8717 81.612 63.0444 81.682 63.1844 81.822C63.3244 81.9527 63.3944 82.1113 63.3944 82.298C63.3944 82.5033 63.3244 82.676 63.1844 82.816C63.0444 82.956 62.8717 83.026 62.6664 83.026ZM68.9741 92.07C68.2461 92.07 67.5928 91.9113 67.0141 91.594C66.4448 91.2767 65.9968 90.8333 65.6701 90.264C65.3435 89.6853 65.1801 89.0367 65.1801 88.318C65.1801 87.5993 65.3435 86.9553 65.6701 86.386C65.9968 85.8167 66.4448 85.3733 67.0141 85.056C67.5928 84.7387 68.2461 84.58 68.9741 84.58C69.6088 84.58 70.1735 84.706 70.6681 84.958C71.1721 85.2007 71.5688 85.56 71.8581 86.036L71.1161 86.54C70.8735 86.176 70.5655 85.9053 70.1921 85.728C69.8188 85.5413 69.4128 85.448 68.9741 85.448C68.4421 85.448 67.9615 85.5693 67.5321 85.812C67.1121 86.0453 66.7808 86.3813 66.5381 86.82C66.3048 87.2587 66.1881 87.758 66.1881 88.318C66.1881 88.8873 66.3048 89.3913 66.5381 89.83C66.7808 90.2593 67.1121 90.5953 67.5321 90.838C67.9615 91.0713 68.4421 91.188 68.9741 91.188C69.4128 91.188 69.8188 91.0993 70.1921 90.922C70.5655 90.7447 70.8735 90.474 71.1161 90.11L71.8581 90.614C71.5688 91.09 71.1721 91.454 70.6681 91.706C70.1641 91.9487 69.5995 92.07 68.9741 92.07ZM76.3868 84.58C77.3481 84.58 78.0855 84.8227 78.5988 85.308C79.1121 85.784 79.3688 86.4933 79.3688 87.436V92H78.4168V90.852C78.1928 91.2347 77.8615 91.5333 77.4228 91.748C76.9935 91.9627 76.4801 92.07 75.8828 92.07C75.0615 92.07 74.4081 91.874 73.9228 91.482C73.4375 91.09 73.1948 90.572 73.1948 89.928C73.1948 89.3027 73.4188 88.7987 73.8668 88.416C74.3241 88.0333 75.0475 87.842 76.0368 87.842H78.3748V87.394C78.3748 86.7593 78.1975 86.2787 77.8428 85.952C77.4881 85.616 76.9701 85.448 76.2888 85.448C75.8221 85.448 75.3741 85.5273 74.9448 85.686C74.5155 85.8353 74.1468 86.0453 73.8388 86.316L73.3908 85.574C73.7641 85.2567 74.2121 85.014 74.7348 84.846C75.2575 84.6687 75.8081 84.58 76.3868 84.58ZM76.0368 91.286C76.5968 91.286 77.0775 91.16 77.4788 90.908C77.8801 90.6467 78.1788 90.2733 78.3748 89.788V88.584H76.0648C74.8048 88.584 74.1748 89.0227 74.1748 89.9C74.1748 90.3293 74.3381 90.67 74.6648 90.922C74.9915 91.1647 75.4488 91.286 76.0368 91.286ZM89.6107 82.2C90.8613 82.2 91.8413 82.4987 92.5507 83.096C93.26 83.6933 93.6147 84.5147 93.6147 85.56C93.6147 86.6053 93.26 87.4267 92.5507 88.024C91.8413 88.612 90.8613 88.906 89.6107 88.906H86.9787V92H85.9427V82.2H89.6107ZM89.5827 87.996C90.5533 87.996 91.2953 87.786 91.8087 87.366C92.322 86.9367 92.5787 86.3347 92.5787 85.56C92.5787 84.7667 92.322 84.16 91.8087 83.74C91.2953 83.3107 90.5533 83.096 89.5827 83.096H86.9787V87.996H89.5827ZM98.6138 92.07C97.9044 92.07 97.2651 91.9113 96.6958 91.594C96.1264 91.2673 95.6784 90.8193 95.3518 90.25C95.0251 89.6807 94.8618 89.0367 94.8618 88.318C94.8618 87.5993 95.0251 86.9553 95.3518 86.386C95.6784 85.8167 96.1264 85.3733 96.6958 85.056C97.2651 84.7387 97.9044 84.58 98.6138 84.58C99.3231 84.58 99.9624 84.7387 100.532 85.056C101.101 85.3733 101.544 85.8167 101.862 86.386C102.188 86.9553 102.352 87.5993 102.352 88.318C102.352 89.0367 102.188 89.6807 101.862 90.25C101.544 90.8193 101.101 91.2673 100.532 91.594C99.9624 91.9113 99.3231 92.07 98.6138 92.07ZM98.6138 91.188C99.1364 91.188 99.6031 91.0713 100.014 90.838C100.434 90.5953 100.76 90.2547 100.994 89.816C101.227 89.3773 101.344 88.878 101.344 88.318C101.344 87.758 101.227 87.2587 100.994 86.82C100.76 86.3813 100.434 86.0453 100.014 85.812C99.6031 85.5693 99.1364 85.448 98.6138 85.448C98.0911 85.448 97.6198 85.5693 97.1998 85.812C96.7891 86.0453 96.4624 86.3813 96.2198 86.82C95.9864 87.2587 95.8698 87.758 95.8698 88.318C95.8698 88.878 95.9864 89.3773 96.2198 89.816C96.4624 90.2547 96.7891 90.5953 97.1998 90.838C97.6198 91.0713 98.0911 91.188 98.6138 91.188ZM106.355 92.07C105.758 92.07 105.184 91.986 104.633 91.818C104.092 91.6407 103.667 91.4213 103.359 91.16L103.807 90.376C104.115 90.6187 104.502 90.8193 104.969 90.978C105.436 91.1273 105.921 91.202 106.425 91.202C107.097 91.202 107.592 91.0993 107.909 90.894C108.236 90.6793 108.399 90.3807 108.399 89.998C108.399 89.7273 108.31 89.5173 108.133 89.368C107.956 89.2093 107.732 89.0927 107.461 89.018C107.19 88.934 106.831 88.8547 106.383 88.78C105.786 88.668 105.305 88.556 104.941 88.444C104.577 88.3227 104.264 88.122 104.003 87.842C103.751 87.562 103.625 87.1747 103.625 86.68C103.625 86.064 103.882 85.56 104.395 85.168C104.908 84.776 105.622 84.58 106.537 84.58C107.013 84.58 107.489 84.6453 107.965 84.776C108.441 84.8973 108.833 85.0607 109.141 85.266L108.707 86.064C108.1 85.644 107.377 85.434 106.537 85.434C105.902 85.434 105.422 85.546 105.095 85.77C104.778 85.994 104.619 86.288 104.619 86.652C104.619 86.932 104.708 87.156 104.885 87.324C105.072 87.492 105.3 87.618 105.571 87.702C105.842 87.7767 106.215 87.856 106.691 87.94C107.279 88.052 107.75 88.164 108.105 88.276C108.46 88.388 108.763 88.5793 109.015 88.85C109.267 89.1207 109.393 89.494 109.393 89.97C109.393 90.614 109.122 91.1273 108.581 91.51C108.049 91.8833 107.307 92.07 106.355 92.07ZM115.109 91.552C114.922 91.72 114.689 91.8507 114.409 91.944C114.138 92.028 113.853 92.07 113.555 92.07C112.864 92.07 112.332 91.8833 111.959 91.51C111.585 91.1367 111.399 90.6093 111.399 89.928V85.476H110.083V84.636H111.399V83.026H112.393V84.636H114.633V85.476H112.393V89.872C112.393 90.3107 112.5 90.6467 112.715 90.88C112.939 91.104 113.256 91.216 113.667 91.216C113.872 91.216 114.068 91.1833 114.255 91.118C114.451 91.0527 114.619 90.9593 114.759 90.838L115.109 91.552ZM123.07 88.626H116.91C116.966 89.3913 117.26 90.012 117.792 90.488C118.324 90.9547 118.996 91.188 119.808 91.188C120.266 91.188 120.686 91.1087 121.068 90.95C121.451 90.782 121.782 90.5393 122.062 90.222L122.622 90.866C122.296 91.258 121.885 91.5567 121.39 91.762C120.905 91.9673 120.368 92.07 119.78 92.07C119.024 92.07 118.352 91.9113 117.764 91.594C117.186 91.2673 116.733 90.8193 116.406 90.25C116.08 89.6807 115.916 89.0367 115.916 88.318C115.916 87.5993 116.07 86.9553 116.378 86.386C116.696 85.8167 117.125 85.3733 117.666 85.056C118.217 84.7387 118.833 84.58 119.514 84.58C120.196 84.58 120.807 84.7387 121.348 85.056C121.89 85.3733 122.314 85.8167 122.622 86.386C122.93 86.946 123.084 87.59 123.084 88.318L123.07 88.626ZM119.514 85.434C118.805 85.434 118.208 85.6627 117.722 86.12C117.246 86.568 116.976 87.156 116.91 87.884H122.132C122.067 87.156 121.792 86.568 121.306 86.12C120.83 85.6627 120.233 85.434 119.514 85.434ZM126.06 86.078C126.293 85.5833 126.638 85.21 127.096 84.958C127.562 84.706 128.136 84.58 128.818 84.58V85.546L128.58 85.532C127.805 85.532 127.198 85.77 126.76 86.246C126.321 86.722 126.102 87.3893 126.102 88.248V92H125.108V84.636H126.06V86.078Z" fill="#C60018"/>
<defs>
<clipPath id="clip0">
<rect width="89" height="71" fill="white" transform="translate(29)"/>
</clipPath>
</defs>
</svg>
