<svg width="77" height="77" viewBox="0 0 77 77" fill="none" xmlns="http://www.w3.org/2000/svg">
<path d="M76.4348 0.214355H0.434814V76.2144H76.4348V0.214355Z" fill="white"/>
<path d="M59.4469 51.7997C60.3703 49.9443 60.9144 47.8569 60.9144 45.6536V30.363C60.9144 22.8088 54.8134 16.6958 47.3107 16.6958H22.2964C14.7772 16.6958 8.69263 22.8253 8.69263 30.363V45.6371C8.69263 53.1913 14.7937 59.3042 22.2964 59.3042H44.5405H47.3107H68.1863L59.4469 51.7997Z" stroke="#25294C" stroke-width="0.8236" stroke-miterlimit="10"/>
<path d="M35.867 43.1686C35.9659 43.2515 36.1638 43.3177 36.4606 43.384L37.5324 43.6325V44.1792H31.184C30.6398 44.1792 30.2441 44.0301 29.9968 43.7485C29.7494 43.4668 29.634 43.0361 29.634 42.4563V33.1295C29.634 32.2018 29.4856 31.5557 29.1888 31.1581C28.892 30.7771 28.3973 30.5783 27.7047 30.5783C26.4845 30.5783 25.2313 31.0918 23.9452 32.1189V42.7048C23.9452 42.9367 23.9946 43.0858 24.0771 43.1852C24.176 43.2846 24.3574 43.3509 24.6377 43.4171L25.6765 43.6325V44.1792H16.0468V43.6325L17.1186 43.384C17.4319 43.3177 17.6297 43.2515 17.7122 43.1686C17.8111 43.0858 17.8441 42.9367 17.8441 42.7048V31.1084C17.8441 30.8765 17.7946 30.7274 17.7122 30.6446C17.6132 30.5617 17.4154 30.4955 17.1186 30.4292L16.0468 30.1973V29.634L23.368 28.7063H23.8792V31.1912C24.6542 30.5617 25.5941 30.015 26.7154 29.5677C27.8366 29.1205 29.0733 28.8885 30.442 28.8885C32.3382 28.8885 33.6904 29.2861 34.4983 30.0813C35.3063 30.8765 35.7186 32.0693 35.7186 33.6762V42.6882C35.7351 42.9367 35.7845 43.0858 35.867 43.1686Z" fill="#25294C"/>
<path d="M48.5143 43.3842C48.976 43.1026 49.2069 42.589 49.2069 41.8767C49.2069 41.3797 49.0915 40.9821 48.8441 40.6839C48.5968 40.3857 48.2175 40.1041 47.6899 39.8556C47.1622 39.6071 46.3212 39.2758 45.1505 38.845C43.1718 38.1327 41.7702 37.3872 40.9292 36.6252C40.0883 35.8631 39.676 34.8029 39.676 33.4444C39.676 31.9038 40.2532 30.7773 41.3909 30.0318C42.5287 29.2863 44.2601 28.9053 46.5851 28.9053C47.7723 28.9053 48.9266 29.0212 50.0643 29.2532C51.2021 29.4851 52.0925 29.7667 52.7191 30.0649L52.3563 33.7426H51.8452C51.301 32.3676 50.6415 31.3405 49.8665 30.6282C49.0915 29.9158 47.9702 29.5679 46.5026 29.5679C45.5627 29.5679 44.8372 29.7005 44.3425 29.9489C43.8313 30.1974 43.584 30.6779 43.584 31.3405C43.584 31.8044 43.6994 32.1854 43.9303 32.4836C44.1611 32.7652 44.5239 33.0303 45.0351 33.2788C45.5297 33.5273 46.3707 33.8752 47.525 34.3556C49.1904 35.0348 50.4601 35.6146 51.3175 36.1116C52.175 36.6086 52.8016 37.1718 53.2138 37.8014C53.626 38.4309 53.8239 39.2261 53.8239 40.1869C53.8239 41.7276 53.2468 42.8375 52.076 43.5167C50.9053 44.1959 49.1409 44.5438 46.8159 44.5438C45.5792 44.5438 44.2766 44.4279 42.9244 44.1959C41.5723 43.964 40.55 43.6824 39.8904 43.3842L40.3191 39.2095H40.8303C41.193 40.8164 41.8526 41.9926 42.7925 42.7215C43.7324 43.4505 44.9526 43.8149 46.4532 43.8149C47.3436 43.8149 48.0526 43.6658 48.5143 43.3842Z" fill="#25294C"/>
</svg>
