<svg width="76" height="76" viewBox="0 0 76 76" fill="none" xmlns="http://www.w3.org/2000/svg">
<path d="M76 0H0V76H76V0Z" fill="white"/>
<g clip-path="url(#clip0)">
<path d="M60.3226 49.6966C61.2441 47.845 61.7871 45.762 61.7871 43.5632V28.3041C61.7871 20.7654 55.6986 14.665 48.2114 14.665H23.2486C15.7449 14.665 9.67285 20.7819 9.67285 28.3041V43.5467C9.67285 51.0853 15.7613 57.1857 23.2486 57.1857H45.4469H48.2114H69.0439L60.3226 49.6966Z" stroke="#25294C" stroke-width="0.8236" stroke-miterlimit="10"/>
<path d="M36.7911 41.0834C36.8898 41.1661 37.0873 41.2322 37.3835 41.2984L38.4531 41.5463V42.0919H32.1178C31.5747 42.0919 31.1798 41.9431 30.933 41.6621C30.6862 41.381 30.571 40.9512 30.571 40.3726V31.065C30.571 30.1392 30.4229 29.4944 30.1267 29.0976C29.8305 28.7174 29.3368 28.519 28.6457 28.519C27.428 28.519 26.1774 29.0315 24.8939 30.0565V40.6205C24.8939 40.852 24.9432 41.0008 25.0255 41.1C25.1242 41.1992 25.3052 41.2653 25.585 41.3314L26.6217 41.5463V42.0919H17.0117V41.5463L18.0813 41.2984C18.394 41.2322 18.5914 41.1661 18.6737 41.0834C18.7724 41.0008 18.8054 40.852 18.8054 40.6205V29.048C18.8054 28.8166 18.756 28.6678 18.6737 28.5851C18.575 28.5025 18.3775 28.4363 18.0813 28.3702L17.0117 28.1388V27.5767L24.3179 26.6509H24.828V29.1307C25.6014 28.5025 26.5394 27.9569 27.6584 27.5105C28.7773 27.0642 30.0115 26.8327 31.3773 26.8327C33.2696 26.8327 34.619 27.2295 35.4253 28.023C36.2316 28.8166 36.643 30.0069 36.643 31.6105V40.604C36.6595 40.852 36.7088 41.0008 36.7911 41.0834Z" fill="#25294C"/>
<path d="M49.4124 41.2985C49.8731 41.0174 50.1035 40.5049 50.1035 39.794C50.1035 39.2981 49.9883 38.9013 49.7415 38.6037C49.4947 38.3061 49.1162 38.0251 48.5896 37.7771C48.063 37.5291 47.2238 37.1985 46.0555 36.7686C44.0808 36.0578 42.6821 35.3138 41.8429 34.5533C41.0037 33.7929 40.5923 32.7348 40.5923 31.3792C40.5923 29.8417 41.1682 28.7175 42.3036 27.9736C43.4391 27.2296 45.1669 26.8494 47.4871 26.8494C48.6719 26.8494 49.8238 26.9651 50.9592 27.1965C52.0946 27.428 52.9832 27.709 53.6085 28.0066L53.2465 31.6768H52.7364C52.1933 30.3046 51.5351 29.2796 50.7617 28.5687C49.9883 27.8578 48.8694 27.5107 47.4048 27.5107C46.4669 27.5107 45.7428 27.6429 45.2492 27.8909C44.739 28.1389 44.4922 28.6183 44.4922 29.2796C44.4922 29.7425 44.6074 30.1227 44.8378 30.4203C45.0682 30.7014 45.4302 30.9659 45.9403 31.2139C46.434 31.4618 47.2732 31.809 48.4251 32.2884C50.087 32.9663 51.3541 33.5449 52.2098 34.0408C53.0655 34.5368 53.6908 35.0989 54.1022 35.7271C54.5136 36.3553 54.711 37.1489 54.711 38.1078C54.711 39.6452 54.1351 40.7529 52.9667 41.4307C51.7984 42.1085 50.0377 42.4557 47.7175 42.4557C46.4833 42.4557 45.1833 42.34 43.834 42.1085C42.4847 41.8771 41.4644 41.596 40.8062 41.2985L41.234 37.1324H41.7442C42.1062 38.736 42.7644 39.9098 43.7024 40.6372C44.6403 41.3646 45.858 41.7283 47.3555 41.7283C48.244 41.7283 48.9516 41.5795 49.4124 41.2985Z" fill="#25294C"/>
</g>
<defs>
<clipPath id="clip0">
<rect width="61.8723" height="43.9094" fill="white" transform="translate(8.98145 13.9707)"/>
</clipPath>
</defs>
</svg>
