<svg width="62" height="44" viewBox="0 0 62 44" fill="none" xmlns="http://www.w3.org/2000/svg">
<path d="M51.4469 35.7997C52.3703 33.9443 52.9144 31.8569 52.9144 29.6536V14.363C52.9144 6.80875 46.8134 0.695801 39.3107 0.695801H14.2964C6.7772 0.695801 0.692627 6.82532 0.692627 14.363V29.6371C0.692627 37.1913 6.79369 43.3042 14.2964 43.3042H36.5405H39.3107H60.1863L51.4469 35.7997Z" stroke="#25294C" stroke-width="0.8236" stroke-miterlimit="10"/>
<path d="M27.867 27.1686C27.966 27.2515 28.1638 27.3177 28.4606 27.384L29.5325 27.6325V28.1792H23.184C22.6399 28.1792 22.2442 28.0301 21.9968 27.7485C21.7495 27.4668 21.634 27.0361 21.634 26.4563V17.1295C21.634 16.2018 21.4856 15.5557 21.1888 15.1581C20.892 14.7771 20.3973 14.5783 19.7048 14.5783C18.4846 14.5783 17.2314 15.0918 15.9452 16.1189V26.7048C15.9452 26.9367 15.9947 27.0858 16.0771 27.1852C16.1761 27.2846 16.3575 27.3509 16.6378 27.4171L17.6766 27.6325V28.1792H8.04681V27.6325L9.11862 27.384C9.43192 27.3177 9.62979 27.2515 9.71224 27.1686C9.81118 27.0858 9.84415 26.9367 9.84415 26.7048V15.1084C9.84415 14.8765 9.79469 14.7274 9.71224 14.6446C9.6133 14.5617 9.41543 14.4955 9.11862 14.4292L8.04681 14.1973V13.634L15.3681 12.7063H15.8793V15.1912C16.6543 14.5617 17.5942 14.015 18.7154 13.5677C19.8367 13.1205 21.0734 12.8885 22.442 12.8885C24.3383 12.8885 25.6904 13.2861 26.4984 14.0813C27.3064 14.8765 27.7186 16.0693 27.7186 17.6762V26.6882C27.7351 26.9367 27.7846 27.0858 27.867 27.1686Z" fill="#25294C"/>
<path d="M40.5143 27.3842C40.976 27.1026 41.2069 26.589 41.2069 25.8767C41.2069 25.3797 41.0915 24.9821 40.8441 24.6839C40.5968 24.3857 40.2175 24.1041 39.6899 23.8556C39.1622 23.6071 38.3212 23.2758 37.1505 22.845C35.1718 22.1327 33.7702 21.3872 32.9292 20.6252C32.0883 19.8631 31.676 18.8029 31.676 17.4444C31.676 15.9038 32.2532 14.7773 33.3909 14.0318C34.5287 13.2863 36.2601 12.9053 38.5851 12.9053C39.7723 12.9053 40.9266 13.0212 42.0643 13.2532C43.2021 13.4851 44.0925 13.7667 44.7191 14.0649L44.3563 17.7426H43.8452C43.301 16.3676 42.6415 15.3405 41.8665 14.6282C41.0915 13.9158 39.9702 13.5679 38.5026 13.5679C37.5627 13.5679 36.8372 13.7005 36.3425 13.9489C35.8313 14.1974 35.584 14.6779 35.584 15.3405C35.584 15.8044 35.6994 16.1854 35.9303 16.4836C36.1611 16.7652 36.5239 17.0303 37.0351 17.2788C37.5297 17.5273 38.3707 17.8752 39.525 18.3556C41.1904 19.0348 42.4601 19.6146 43.3175 20.1116C44.175 20.6086 44.8016 21.1718 45.2138 21.8014C45.626 22.4309 45.8239 23.2261 45.8239 24.1869C45.8239 25.7276 45.2468 26.8375 44.076 27.5167C42.9053 28.1959 41.1409 28.5438 38.8159 28.5438C37.5792 28.5438 36.2766 28.4279 34.9244 28.1959C33.5723 27.964 32.55 27.6824 31.8904 27.3842L32.3191 23.2095H32.8303C33.193 24.8164 33.8526 25.9926 34.7925 26.7215C35.7324 27.4505 36.9526 27.8149 38.4532 27.8149C39.3436 27.8149 40.0526 27.6658 40.5143 27.3842Z" fill="#25294C"/>
</svg>
