<svg width="77" height="77" viewBox="0 0 77 77" fill="none" xmlns="http://www.w3.org/2000/svg">
<path d="M76.1304 0H0V76.3827H76.1304V0Z" fill="white"/>
<path d="M39.0407 11.4443H35.5972V14.8993H39.0407V11.4443Z" fill="white" stroke="#25294C" stroke-width="0.3464" stroke-miterlimit="10"/>
<path d="M63.9631 11.4443H60.5195V14.8993H63.9631V11.4443Z" stroke="#25294C" stroke-width="0.3464" stroke-miterlimit="10"/>
<path d="M63.9631 61.4688H60.5195V64.9237H63.9631V61.4688Z" stroke="#25294C" stroke-width="0.3464" stroke-miterlimit="10"/>
<path d="M14.2187 11.4443H10.7751V14.8993H14.2187V11.4443Z" stroke="#25294C" stroke-width="0.3464" stroke-miterlimit="10"/>
<path d="M14.2187 61.4688H10.7751V64.9237H14.2187V61.4688Z" stroke="#25294C" stroke-width="0.3464" stroke-miterlimit="10"/>
<path d="M63.9631 36.4636H60.5195V39.9185H63.9631V36.4636Z" fill="white" stroke="#25294C" stroke-width="0.3464" stroke-miterlimit="10"/>
<path d="M14.2187 36.4636H10.7751V39.9185H14.2187V36.4636Z" fill="white" stroke="#25294C" stroke-width="0.3464" stroke-miterlimit="10"/>
<path d="M39.0407 61.4688H35.5972V64.9237H39.0407V61.4688Z" fill="white" stroke="#25294C" stroke-width="0.3464" stroke-miterlimit="10"/>
<path d="M39.0405 13.1863H60.5195" stroke="#25294C" stroke-width="0.3464" stroke-miterlimit="10"/>
<path d="M62.2415 14.9136V36.4637" stroke="#25294C" stroke-width="0.3464" stroke-miterlimit="10"/>
<path d="M62.1982 39.9187V61.4688" stroke="#25294C" stroke-width="0.3464" stroke-miterlimit="10"/>
<path d="M38.2085 43.9351C38.2946 44.0071 38.4668 44.0647 38.7394 44.1223L39.6863 44.3382V44.8276H34.105C33.6171 44.8276 33.2728 44.6981 33.0576 44.4534C32.8423 44.2086 32.7419 43.82 32.7419 43.3161V35.1107C32.7419 34.3045 32.6128 33.7287 32.3545 33.3832C32.0963 33.0377 31.6658 32.865 31.0488 32.865C29.9727 32.865 28.868 33.3112 27.7488 34.2181V43.5177C27.7488 43.7192 27.7919 43.8487 27.8636 43.9351C27.9497 44.0215 28.1075 44.0791 28.3658 44.1367L29.284 44.3238V44.8133H20.79V44.3238L21.737 44.1079C22.0096 44.0503 22.1818 43.9927 22.2679 43.9207C22.354 43.8488 22.3827 43.7192 22.3827 43.5177V33.3256C22.3827 33.1241 22.3396 32.9945 22.2679 32.9225C22.1818 32.8506 22.0096 32.793 21.737 32.7354L20.79 32.5195V32.03L27.2323 31.2239H27.6914V33.412C28.3658 32.8506 29.198 32.3755 30.188 31.9868C31.178 31.5982 32.2684 31.3966 33.4737 31.3966C35.138 31.3966 36.3289 31.7421 37.0463 32.4475C37.7637 33.1529 38.1224 34.2037 38.1224 35.6001V43.5321C38.0937 43.7192 38.1368 43.8631 38.2085 43.9351Z" fill="#25294C"/>
<path d="M49.3426 44.1224C49.7443 43.8776 49.9452 43.4314 49.9452 42.798C49.9452 42.3661 49.8448 42.0206 49.6295 41.7471C49.4143 41.4736 49.07 41.2289 48.6108 41.0129C48.1374 40.797 47.4056 40.4947 46.3869 40.1204C44.6508 39.487 43.4169 38.8392 42.6851 38.1626C41.9534 37.486 41.5803 36.5647 41.5803 35.3699C41.5803 34.0167 42.0825 33.0234 43.0869 32.3612C44.0912 31.699 45.6121 31.3823 47.6495 31.3823C48.6826 31.3823 49.7156 31.4831 50.7056 31.699C51.71 31.9006 52.4848 32.1453 53.0444 32.4188L52.7287 35.6578H52.2696C51.7817 34.4486 51.2078 33.5417 50.5191 32.9227C49.8448 32.3036 48.8548 31.9869 47.5634 31.9869C46.7456 31.9869 46.0999 32.1021 45.6552 32.318C45.2104 32.534 44.9808 32.9514 44.9808 33.5417C44.9808 33.9591 45.0812 34.2902 45.2821 34.5349C45.483 34.7797 45.813 35.0244 46.2434 35.2403C46.6882 35.4563 47.4056 35.773 48.4387 36.1904C49.9022 36.7806 51.0213 37.2989 51.7674 37.7308C52.5135 38.1626 53.0731 38.6521 53.4318 39.2135C53.7905 39.7749 53.9626 40.4659 53.9626 41.3152C53.9626 42.6684 53.4461 43.6329 52.4131 44.2375C51.38 44.8421 49.8304 45.1445 47.7787 45.1445C46.6882 45.1445 45.5404 45.0437 44.3495 44.8278C43.1586 44.6262 42.269 44.3815 41.6808 44.108L42.0538 40.4371H42.5129C42.8286 41.8623 43.4025 42.8844 44.2347 43.5178C45.0525 44.1512 46.1286 44.4679 47.463 44.4679C48.3095 44.4967 48.9408 44.3671 49.3426 44.1224Z" fill="#25294C"/>
<path d="M60.4479 63.1963H39.0837" stroke="#25294C" stroke-width="0.3464" stroke-miterlimit="10"/>
<path d="M35.5972 63.1963H14.2188" stroke="#25294C" stroke-width="0.3464" stroke-miterlimit="10"/>
<path d="M12.4968 61.4688V39.9187" stroke="#25294C" stroke-width="0.3464" stroke-miterlimit="10"/>
<path d="M12.4968 36.4637V14.9136" stroke="#25294C" stroke-width="0.3464" stroke-miterlimit="10"/>
<path d="M14.2188 13.1863H35.5972" stroke="#25294C" stroke-width="0.3464" stroke-miterlimit="10"/>
</svg>
