<svg width="509" height="65" viewBox="0 0 509 65" fill="none" xmlns="http://www.w3.org/2000/svg">
<g clip-path="url(#clip0)">
<path d="M9.33057 44.0591H12.7919C15.4545 44.0591 17.2835 44.9115 17.2835 47.2728C17.2835 49.0236 16.2532 49.8991 14.6441 50.3022V50.3368C16.3921 50.4865 17.6192 51.6153 17.6192 53.4007C17.6192 56.1422 15.3503 56.7988 12.7456 56.7988H9.33057V44.0591ZM11.1596 49.4959H12.1668C13.9495 49.4959 15.4545 49.3346 15.4545 47.4571C15.4545 45.9481 14.1579 45.5565 13.0929 45.5565H11.1596V49.4959ZM11.1596 55.3013H12.5372C14.1926 55.3013 15.6744 54.9558 15.6744 53.2395C15.6744 51.2698 13.9264 50.9933 12.352 50.9933H11.1596V55.3013Z" fill="#83AAD5"/>
<path d="M41.999 44.0591C42.6357 44.1167 43.1103 44.1512 43.4344 44.1628C43.7586 44.1743 44.0364 44.1858 44.2795 44.1858C44.5689 44.1858 44.9046 44.1743 45.2751 44.1512C45.6455 44.1282 46.0507 44.1052 46.479 44.0591L46.3517 44.7041C46.317 44.7041 46.2706 44.7041 46.2012 44.6926C46.1433 44.6811 46.097 44.6811 46.0738 44.6811C45.6571 44.6811 45.3445 44.7963 45.1593 45.0267C44.9625 45.257 44.7889 45.8099 44.6384 46.6969L43.3071 54.2762C43.2724 54.495 43.2376 54.6793 43.2261 54.8291C43.2029 54.9788 43.2029 55.1055 43.2029 55.1861C43.2029 55.5547 43.2724 55.8197 43.4229 55.9579C43.5734 56.0961 43.8165 56.1652 44.1869 56.1652C44.2216 56.1652 44.2564 56.1652 44.3142 56.1537C44.3606 56.1422 44.4069 56.1422 44.43 56.1422C44.4647 56.1422 44.4995 56.1422 44.5226 56.1537C44.5458 56.1652 44.5573 56.1652 44.5689 56.1768L44.4416 56.7872C43.9322 56.7527 43.4808 56.7181 43.0987 56.7066C42.7167 56.6836 42.4042 56.6836 42.1495 56.6836C41.8948 56.6836 41.5707 56.6951 41.1886 56.7066C40.8066 56.7296 40.3436 56.7527 39.8226 56.7872L39.9615 56.1768C40.0079 56.1883 40.0426 56.1883 40.0889 56.1883C40.1352 56.1883 40.1931 56.1883 40.2741 56.1883C40.6677 56.1883 40.9571 56.0846 41.1423 55.8657C41.3276 55.6469 41.4896 55.1401 41.6401 54.3222L43.0524 46.2937C43.0756 46.167 43.0872 46.0288 43.0987 45.9021C43.1103 45.7754 43.1219 45.6832 43.1219 45.6256C43.1219 45.257 43.0408 45.0036 42.8672 44.8769C42.7051 44.7502 42.3694 44.6926 41.8832 44.6926L41.999 44.0591Z" fill="#83AAD5"/>
<path d="M70.4536 44.7617V50.9012C70.4536 53.228 71.5649 54.2071 73.0583 54.2071C74.7137 54.2071 75.7787 53.1934 75.7787 50.9012V44.7617H77.2373V50.809C77.2373 53.9882 75.4314 55.3013 73.012 55.3013C70.7199 55.3013 68.995 54.0919 68.995 50.8666V44.7617H70.4536Z" fill="#83AAD5"/>
<path d="M68.1615 57.8931H78.2561" stroke="#83AAD5" stroke-miterlimit="10"/>
<path d="M101.814 57.3059L101.698 56.3268H101.652C101.212 56.9373 100.378 57.4902 99.2556 57.4902C97.6696 57.4902 96.8593 56.3729 96.8593 55.2556C96.8593 53.3665 98.5378 52.3413 101.571 52.3529V52.1916C101.571 51.5466 101.397 50.3832 99.7881 50.3832C99.0588 50.3832 98.2947 50.6135 97.7506 50.9591L97.4265 50.0261C98.0748 49.6114 99.0124 49.335 99.9964 49.335C102.393 49.335 102.972 50.9591 102.972 52.5256V55.4399C102.972 56.1195 103.006 56.776 103.099 57.3059H101.814ZM101.606 53.3319C100.054 53.2974 98.2831 53.5738 98.2831 55.0828C98.2831 56.0043 98.8967 56.442 99.626 56.442C100.645 56.442 101.293 55.7969 101.525 55.1404C101.571 54.9906 101.606 54.8294 101.606 54.6912V53.3319Z" fill="#83AAD5"/>
<path d="M103.875 57.3057C103.909 56.7759 103.944 55.9811 103.944 55.29V45.8677H105.345V50.7631H105.379C105.877 49.8877 106.792 49.3348 108.054 49.3348C109.998 49.3348 111.376 50.9474 111.353 53.3088C111.353 56.0963 109.593 57.4785 107.845 57.4785C106.711 57.4785 105.808 57.0408 105.217 56.0156H105.171L105.102 57.3057H103.875ZM105.345 54.1842C105.345 54.357 105.379 54.5413 105.414 54.7025C105.692 55.6816 106.514 56.3612 107.556 56.3612C109.049 56.3612 109.941 55.1517 109.941 53.3663C109.941 51.7998 109.13 50.4636 107.614 50.4636C106.641 50.4636 105.738 51.1202 105.449 52.203C105.414 52.3642 105.368 52.56 105.368 52.7789V54.1842H105.345Z" fill="#83AAD5"/>
<path d="M113.193 53.3315H94.7755" stroke="#83AAD5" stroke-miterlimit="10"/>
<path d="M132.028 48.1943L133.197 49.9452C133.498 50.4059 133.753 50.8206 134.031 51.2813H134.077C134.343 50.7976 134.621 50.3714 134.887 49.9337L136.045 48.1943H137.654L134.853 52.1452L137.735 56.3611H136.045L134.841 54.5181C134.517 54.0458 134.251 53.5851 133.961 53.1013H133.927C133.66 53.5851 133.371 54.0343 133.058 54.5181L131.878 56.3611H130.234L133.151 52.1913L130.373 48.1943H132.028Z" fill="#83AAD5"/>
<path d="M162.312 48.1943L163.481 49.9452C163.782 50.4059 164.037 50.8206 164.314 51.2813H164.361C164.627 50.7976 164.905 50.3714 165.171 49.9337L166.329 48.1943H167.938L165.136 52.1452L168.019 56.3611H166.329L165.125 54.5181C164.801 54.0458 164.534 53.5851 164.245 53.1013H164.21C163.944 53.5851 163.655 54.0343 163.342 54.5181L162.161 56.3611H160.517L163.435 52.1913L160.656 48.1943H162.312Z" fill="#83AAD5"/>
<path d="M138.488 60.3581V59.8628L139.124 59.2523C140.653 57.8124 141.336 57.0407 141.347 56.1422C141.347 55.5433 141.058 54.9788 140.166 54.9788C139.622 54.9788 139.171 55.2553 138.893 55.4857L138.638 54.9212C139.055 54.5757 139.645 54.3223 140.328 54.3223C141.613 54.3223 142.157 55.1977 142.157 56.0501C142.157 57.1443 141.359 58.0313 140.097 59.2408L139.622 59.6785V59.7015H142.308V60.3696H138.488V60.3581Z" fill="#83AAD5"/>
<path d="M168.679 47.7912V47.2959L169.316 46.6854C170.844 45.2455 171.527 44.4738 171.538 43.5753C171.538 42.9764 171.249 42.4119 170.357 42.4119C169.813 42.4119 169.362 42.6884 169.084 42.9188L168.829 42.3543C169.246 42.0088 169.836 41.7554 170.519 41.7554C171.804 41.7554 172.349 42.6308 172.349 43.4832C172.349 44.5775 171.55 45.4644 170.288 46.6739L169.813 47.1116V47.1346H172.499V47.8027H168.679V47.7912Z" fill="#83AAD5"/>
<path d="M187.641 41.7437V61.7862" stroke="#83AAD5" stroke-miterlimit="10"/>
<path d="M293.101 41.7437V61.7862" stroke="#83AAD5" stroke-miterlimit="10"/>
<path d="M248.845 3.90479V23.9473" stroke="#83AAD5" stroke-miterlimit="10"/>
<path d="M296.563 3.90479V23.9473" stroke="#83AAD5" stroke-miterlimit="10"/>
<path d="M402.011 3.90479V23.9473" stroke="#83AAD5" stroke-miterlimit="10"/>
<path d="M479.585 3.90479V23.9473" stroke="#83AAD5" stroke-miterlimit="10"/>
<path d="M209.775 55.1169H203.662L206.719 52.721L207.98 49.5073L211.928 53.4352L209.705 53.608L209.775 55.1169Z" fill="#83AAD5"/>
<path d="M216.964 42.7689C217.311 42.7689 217.681 42.9647 218.075 43.3563C218.816 44.082 218.712 44.6349 218.631 44.8422L211.94 51.5L209.925 49.4958L216.616 42.838C216.686 42.8034 216.813 42.7689 216.964 42.7689ZM216.964 41.4097C216.246 41.4097 215.783 41.7437 215.783 41.7437L207.992 49.4958L211.951 53.4352L219.742 45.6831C219.742 45.6831 220.796 44.1281 219.059 42.4003C218.272 41.617 217.531 41.4097 216.964 41.4097Z" fill="#83AAD5"/>
<path d="M220.795 56.0962H202.273V60.8649H220.795V56.0962Z" fill="#83AAD5"/>
<path d="M229.038 49.9565L232.441 54.1954L235.764 49.9565" stroke="#83AAD5" stroke-width="2" stroke-miterlimit="10" stroke-linecap="round"/>
<path d="M229.547 7.06104L231.967 10.0674L234.328 7.06104" stroke="#83AAD5" stroke-miterlimit="10" stroke-linecap="round"/>
<path d="M338.423 13.2002L341.236 16.7134L343.991 13.2002" stroke="#83AAD5" stroke-width="1.1677" stroke-miterlimit="10" stroke-linecap="round"/>
<path d="M203.998 10.0674L201.579 7.06104L199.217 10.0674" stroke="#83AAD5" stroke-miterlimit="10" stroke-linecap="round"/>
<path d="M273.352 49.9565L276.767 54.1954L280.089 49.9565" stroke="#83AAD5" stroke-width="2" stroke-miterlimit="10" stroke-linecap="round"/>
<path d="M101.976 13.5229L105.391 17.7618L108.713 13.5229" stroke="#83AAD5" stroke-width="2" stroke-miterlimit="10" stroke-linecap="round"/>
<path d="M167.22 13.5229L170.635 17.7618L173.958 13.5229" stroke="#83AAD5" stroke-width="2" stroke-miterlimit="10" stroke-linecap="round"/>
<path d="M252.908 50.9125L251.507 55.1169H249.713L254.274 41.7437H256.37L260.954 55.1169H259.102L257.666 50.9125H252.908ZM257.307 49.5648L255.988 45.7176C255.687 44.8422 255.49 44.0474 255.293 43.2756H255.247C255.05 44.0704 254.83 44.8883 254.575 45.6946L253.255 49.5648H257.307Z" fill="#83AAD5"/>
<path d="M222.243 16.7828L221.062 20.3305H219.545L223.389 9.05371H225.16L229.026 20.3305H227.464L226.248 16.7828H222.243ZM225.959 15.6424L224.847 12.3941C224.593 11.6569 224.431 10.9889 224.257 10.3323H224.222C224.048 11.0004 223.863 11.6915 223.655 12.3711L222.544 15.6309H225.959V15.6424Z" fill="#83AAD5"/>
<path d="M190.639 15.6191L189.076 20.3303H187.074L192.19 5.35596H194.54L199.68 20.3303H197.608L195.999 15.6191H190.639ZM195.571 14.1102L194.1 9.80217C193.765 8.82308 193.545 7.93614 193.313 7.07224H193.267C193.047 7.95918 192.792 8.86916 192.514 9.77914L191.044 14.1102H195.571Z" fill="#83AAD5"/>
<path d="M264.658 56.0962H245.905V60.8649H264.658V56.0962Z" fill="#83AAD5"/>
<path d="M270.817 5.35596H268.467L263.35 20.3303H265.364L266.927 15.6191H272.264L273.804 14.0871L270.817 5.35596ZM267.332 14.1102L268.803 9.77914C269.092 8.86916 269.335 7.95918 269.555 7.07224H269.601C269.821 7.93614 270.041 8.82308 270.389 9.80217L271.859 14.1102H267.332Z" fill="#83AAD5"/>
<path d="M278.006 12.2905L270.608 19.651L275.007 24.0281L282.405 16.6676L278.006 12.2905ZM280.761 16.6676L276.825 20.584L274.058 17.831L277.994 13.9147L280.761 16.6676Z" fill="#83AAD5"/>
<path d="M314.494 5.49463H311.033V8.93872H314.494V5.49463Z" fill="#83AAD5"/>
<path d="M314.494 12.3711H311.033V15.8152H314.494V12.3711Z" fill="#83AAD5"/>
<path d="M314.494 19.2476H311.033V22.6917H314.494V19.2476Z" fill="#83AAD5"/>
<path d="M328.432 6.62305H316.868V7.82099H328.432V6.62305Z" fill="#83AAD5"/>
<path d="M328.432 13.5112H316.868V14.7092H328.432V13.5112Z" fill="#83AAD5"/>
<path d="M328.432 20.3994H316.868V21.5974H328.432V20.3994Z" fill="#83AAD5"/>
<path d="M382.366 13.2002L385.18 16.7134L387.935 13.2002" stroke="#83AAD5" stroke-width="1.1677" stroke-miterlimit="10" stroke-linecap="round"/>
<path d="M372.376 6.62305H360.811V7.82099H372.376V6.62305Z" fill="#83AAD5"/>
<path d="M372.376 13.5112H360.811V14.7092H372.376V13.5112Z" fill="#83AAD5"/>
<path d="M372.376 20.3994H360.811V21.5974H372.376V20.3994Z" fill="#83AAD5"/>
<path d="M356.817 6.20866H356.806L356.053 6.61181L355.938 6.16258L356.887 5.65576H357.385V9.96375H356.817V6.20866Z" fill="#83AAD5"/>
<path d="M355.278 16.8979V16.5408L355.741 16.0916C356.852 15.0434 357.35 14.4905 357.35 13.8339C357.35 13.3962 357.142 12.9931 356.493 12.9931C356.1 12.9931 355.776 13.1889 355.579 13.3617L355.394 12.947C355.695 12.6936 356.123 12.5093 356.621 12.5093C357.558 12.5093 357.952 13.1428 357.952 13.7648C357.952 14.5596 357.373 15.2047 356.459 16.0801L356.111 16.4026V16.4141H358.056V16.8979H355.278Z" fill="#83AAD5"/>
<path d="M355.463 23.0835C355.625 23.1872 356.019 23.36 356.424 23.36C357.176 23.36 357.408 22.8877 357.408 22.5191C357.396 21.9201 356.852 21.6552 356.285 21.6552H355.961V21.2175H356.285C356.713 21.2175 357.246 20.9986 357.246 20.4918C357.246 20.1463 357.026 19.8468 356.482 19.8468C356.135 19.8468 355.799 19.9965 355.614 20.1347L355.463 19.7086C355.695 19.5473 356.135 19.3745 356.598 19.3745C357.454 19.3745 357.836 19.8813 357.836 20.3997C357.836 20.8489 357.57 21.2175 357.037 21.4133V21.4248C357.57 21.5285 357.998 21.9317 357.998 22.5306C357.998 23.2218 357.454 23.8207 356.424 23.8207C355.938 23.8207 355.509 23.671 355.301 23.5328L355.463 23.0835Z" fill="#83AAD5"/>
<path d="M424.875 13.4306H420.082L421.576 12.2327C421.807 12.0484 421.842 11.7143 421.657 11.484C421.471 11.2536 421.136 11.219 420.904 11.4033L417.593 14.0411L420.916 16.6213C421.008 16.7019 421.124 16.7365 421.24 16.7365C421.402 16.7365 421.552 16.6674 421.657 16.5292C421.842 16.2988 421.795 15.9647 421.564 15.7804L420.036 14.594H424.875V13.4306Z" fill="#83AAD5"/>
<path d="M440.908 42.4463C440.815 42.3657 440.7 42.3311 440.584 42.3311C440.422 42.3311 440.271 42.4002 440.167 42.5385C439.982 42.7688 440.028 43.1029 440.26 43.2872L441.788 44.4736H437.4H436.949H432.596L434.09 43.2757C434.321 43.0914 434.356 42.7573 434.171 42.5269C433.985 42.2966 433.65 42.262 433.418 42.4463L430.107 45.0841L433.43 47.6643C433.522 47.7449 433.638 47.7795 433.754 47.7795C433.916 47.7795 434.066 47.7104 434.171 47.5721C434.356 47.3418 434.31 47.0077 434.078 46.8234L432.55 45.637H436.937H437.389H441.742L440.248 46.8349C440.017 47.0192 439.982 47.3533 440.167 47.5837C440.352 47.814 440.688 47.8486 440.92 47.6643L444.23 45.0265L440.908 42.4463Z" fill="#83AAD5"/>
<path d="M447.692 14.5944H452.484L450.991 15.7924C450.759 15.9767 450.725 16.3107 450.91 16.5411C451.095 16.7715 451.431 16.806 451.662 16.6217L454.973 13.9839L451.651 11.4038C451.558 11.3231 451.442 11.2886 451.327 11.2886C451.165 11.2886 451.014 11.3577 450.91 11.4959C450.725 11.7263 450.771 12.0603 451.003 12.2446L452.531 13.4311H447.692V14.5944Z" fill="#83AAD5"/>
<path d="M467.325 58.446H472.118L470.624 59.6439C470.393 59.8282 470.358 60.1623 470.543 60.3927C470.729 60.623 471.064 60.6576 471.296 60.4733L474.607 57.8355L471.284 55.2553C471.192 55.1747 471.076 55.1401 470.96 55.1401C470.798 55.1401 470.648 55.2092 470.543 55.3475C470.358 55.5778 470.404 55.9119 470.636 56.0962L472.164 57.2826H467.325V58.446Z" fill="#83AAD5"/>
<path d="M433.754 6.61182H417.593V7.76369H433.754V6.61182Z" fill="#83AAD5"/>
<path d="M433.754 11.2886H426.773V12.4404H433.754V11.2886Z" fill="#83AAD5"/>
<path d="M433.754 15.7808H426.773V16.9326H433.754V15.7808Z" fill="#83AAD5"/>
<path d="M463.852 11.2886H456.872V12.4404H463.852V11.2886Z" fill="#83AAD5"/>
<path d="M463.852 15.7808H456.872V16.9326H463.852V15.7808Z" fill="#83AAD5"/>
<path d="M433.754 20.2612H417.593V21.4131H433.754V20.2612Z" fill="#83AAD5"/>
<path d="M463.852 6.61182H447.692V7.76369H463.852V6.61182Z" fill="#83AAD5"/>
<path d="M463.852 20.2612H447.692V21.4131H463.852V20.2612Z" fill="#83AAD5"/>
<path d="M509 8.99608V7.78662H501.603C499.38 7.78662 497.574 9.58354 497.574 11.7951C497.574 14.0067 499.38 15.8036 501.603 15.8036C501.753 15.8036 501.892 15.7921 502.031 15.7691V21.5975H503.235V10.3207L504.508 8.99608H505.504V21.5975H506.708V10.3092L507.97 8.99608H509Z" fill="#83AAD5"/>
<path d="M326.962 65.0001H306.773C304.793 65.0001 303.196 63.4105 303.196 61.4408V41.3522C303.196 39.3825 304.793 37.793 306.773 37.793H326.95C328.93 37.793 330.528 39.3825 330.528 41.3522V61.4293C330.539 63.399 328.93 65.0001 326.962 65.0001Z" fill="#83AAD5"/>
<path d="M357.304 65.0001H337.126C335.147 65.0001 333.549 63.4105 333.549 61.4408V41.3522C333.549 39.3825 335.147 37.793 337.126 37.793H357.304C359.283 37.793 360.881 39.3825 360.881 41.3522V61.4293C360.881 63.399 359.283 65.0001 357.304 65.0001Z" fill="#83AAD5"/>
<path d="M324.959 43.3447H308.776V44.8306H324.959V43.3447Z" fill="white"/>
<path d="M320.387 47.9292H308.776V49.4151H320.387V47.9292Z" fill="white"/>
<path d="M324.959 52.5254H308.776V54.0113H324.959V52.5254Z" fill="white"/>
<path d="M320.387 57.1211H308.776V58.607H320.387V57.1211Z" fill="white"/>
<path d="M385.145 43.3447H368.961V44.8306H385.145V43.3447Z" fill="#83AAD5"/>
<path d="M385.156 47.9292H373.545V49.4151H385.156V47.9292Z" fill="#83AAD5"/>
<path d="M385.145 52.5254H368.961V54.0113H385.145V52.5254Z" fill="#83AAD5"/>
<path d="M385.156 57.1211H373.545V58.607H385.156V57.1211Z" fill="#83AAD5"/>
<path d="M415.197 43.3447H399.013V44.8306H415.197V43.3447Z" fill="#83AAD5"/>
<path d="M415.197 47.9292H399.013V49.4151H415.197V47.9292Z" fill="#83AAD5"/>
<path d="M415.197 52.5254H399.013V54.0113H415.197V52.5254Z" fill="#83AAD5"/>
<path d="M415.197 57.1211H399.013V58.607H415.197V57.1211Z" fill="#83AAD5"/>
<path d="M355.301 43.3447H339.117V44.8306H355.301V43.3447Z" fill="white"/>
<path d="M353.021 47.9292H341.409V49.4151H353.021V47.9292Z" fill="white"/>
<path d="M355.301 52.5254H339.117V54.0113H355.301V52.5254Z" fill="white"/>
<path d="M353.021 57.1211H341.409V58.607H353.021V57.1211Z" fill="white"/>
<path d="M444.219 49.2769H430.327V50.3711H444.219V49.2769Z" fill="#83AAD5"/>
<path d="M474.387 43.5176H468.506V44.6119H474.387V43.5176Z" fill="#83AAD5"/>
<path d="M474.387 48.1826H468.506V49.2769H474.387V48.1826Z" fill="#83AAD5"/>
<path d="M466.341 57.3862H460.46V58.4805H466.341V57.3862Z" fill="#83AAD5"/>
<path d="M444.219 53.8843H430.327V54.9785H444.219V53.8843Z" fill="#83AAD5"/>
<path d="M474.387 52.7788H460.495V53.8731H474.387V52.7788Z" fill="#83AAD5"/>
<path d="M444.219 58.4805H430.327V59.5747H444.219V58.4805Z" fill="#83AAD5"/>
<path d="M429.135 42.3311H427.931V60.7379H429.135V42.3311Z" fill="#83AAD5"/>
<path d="M446.627 42.3311H445.423V60.7379H446.627V42.3311Z" fill="#83AAD5"/>
<path d="M459.291 42.3311H458.087V60.7379H459.291V42.3311Z" fill="#83AAD5"/>
<path d="M476.795 42.3311H475.591V60.7379H476.795V42.3311Z" fill="#83AAD5"/>
<path d="M110.346 28.2095H4.74634C2.44265 28.2095 0.578857 26.355 0.578857 24.0628V4.7229C0.578857 2.43068 2.44265 0.576172 4.74634 0.576172H110.346C112.649 0.576172 114.513 2.43068 114.513 4.7229V24.0628C114.513 26.355 112.638 28.2095 110.346 28.2095Z" stroke="#83AAD5" stroke-miterlimit="10"/>
<path d="M175.069 28.2095H120.093C118.403 28.2095 117.037 26.8503 117.037 25.1686V3.61711C117.037 1.93538 118.403 0.576172 120.093 0.576172H175.069C176.759 0.576172 178.125 1.93538 178.125 3.61711V25.1801C178.125 26.8503 176.759 28.2095 175.069 28.2095Z" stroke="#83AAD5" stroke-width="0.7322" stroke-miterlimit="10"/>
</g>
<defs>
<clipPath id="clip0">
<rect width="509" height="65" fill="white"/>
</clipPath>
</defs>
</svg>
