<svg width="64" height="65" viewBox="0 0 64 65" fill="none" xmlns="http://www.w3.org/2000/svg">
<path d="M32 64.1949C49.6731 64.1949 64 49.8244 64 32.0975C64 14.3705 49.6731 0 32 0C14.3269 0 0 14.3705 0 32.0975C0 49.8244 14.3269 64.1949 32 64.1949Z" fill="#252A49"/>
<path d="M15.0523 41.6188L29.9467 32.8102L14.9891 23.97V41.0802C14.9891 41.2703 15.0207 41.4445 15.0523 41.6188Z" fill="white"/>
<path d="M30.61 33.2063L15.3208 42.2525C15.7315 42.9654 16.4896 43.4566 17.3583 43.4566H46.6416C47.5893 43.4566 48.4106 42.8862 48.7739 42.0782L33.7848 33.2221L32.1895 34.1569L30.61 33.2063Z" fill="white"/>
<path d="M48.995 41.0803V24.2078L34.4481 32.8104L48.9634 41.3972C48.9792 41.2863 48.995 41.1912 48.995 41.0803Z" fill="white"/>
<path d="M17.3425 20.7539C16.0474 20.7539 14.9891 21.8154 14.9891 23.1145V23.1937L32.1895 33.3647L48.9793 23.4313V23.1145C48.9793 21.8154 47.921 20.7539 46.6259 20.7539H17.3425Z" fill="white"/>
</svg>
