<svg width="77" height="77" viewBox="0 0 77 77" fill="none" xmlns="http://www.w3.org/2000/svg">
<path d="M76.1304 0H0V76.3827H76.1304V0Z" fill="white"/>
<path d="M28.7677 19.9378C30.0446 19.9378 31.1207 20.8159 31.3933 22.0683C31.5655 22.8313 32.2542 23.3783 33.0434 23.3783H57.1336C59.415 23.3783 61.2659 25.2354 61.2659 27.5243V51.0466H13.4871V26.4734V22.2699V20.8735C13.4871 20.3553 13.9032 19.9522 14.4053 19.9522H28.7677V19.9378ZM28.7677 18.8293H14.4053C13.2862 18.8293 12.3679 19.7507 12.3679 20.8735V22.2699V26.4734V51.5792C12.3679 51.8959 12.6262 52.1694 12.9562 52.1694H61.7967C62.1124 52.1694 62.385 51.9103 62.385 51.5792V27.5243C62.385 24.6164 60.0319 22.2699 57.148 22.2699H33.0434C32.7851 22.2699 32.5412 22.0971 32.4838 21.838C32.0964 20.1105 30.5899 18.8293 28.7677 18.8293Z" fill="#25294C"/>
<path d="M59.9028 57.5533H14.8358C13.4727 57.5533 12.3679 56.4449 12.3679 55.0773V32.1885C12.3679 28.8631 15.051 26.1711 18.3654 26.1711H56.3588C59.6732 26.1711 62.3563 28.8631 62.3563 32.1885V55.0773C62.3706 56.4593 61.2659 57.5533 59.9028 57.5533Z" fill="#25294C"/>
</svg>
