<svg width="33" height="33" viewBox="0 0 33 33" fill="none" xmlns="http://www.w3.org/2000/svg">
<path d="M16.5 32.1651C25.3552 32.1651 32.5337 24.9647 32.5337 16.0825C32.5337 7.20039 25.3552 0 16.5 0C7.64484 0 0.466309 7.20039 0.466309 16.0825C0.466309 24.9647 7.64484 32.1651 16.5 32.1651Z" fill="#252A49"/>
<path d="M14.5056 24.0364H17.7028V16.019H19.9346L20.172 13.3359H17.6949C17.6949 13.3359 17.6949 12.3357 17.6949 11.8039C17.6949 11.1688 17.8216 10.9227 18.4309 10.9227C18.9216 10.9227 20.1562 10.9227 20.1562 10.9227V8.13647C20.1562 8.13647 18.336 8.13647 17.9482 8.13647C15.574 8.13647 14.4977 9.1843 14.4977 11.1926C14.4977 12.9469 14.4977 13.3359 14.4977 13.3359H12.8358V16.0587H14.4977V24.0364H14.5056Z" fill="white"/>
</svg>
