<svg width="77" height="77" viewBox="0 0 77 77" fill="none" xmlns="http://www.w3.org/2000/svg">
<path d="M76.1304 0H0V76.3827H76.1304V0Z" fill="white"/>
<path d="M53.2454 16.814C54.0058 16.814 55.6415 17.2027 58.2241 19.7795C61.4094 22.9753 61.4381 24.9619 60.9933 25.5809L33.1438 53.537L24.5924 44.9573L52.4419 17.0156C52.5136 16.9724 52.7862 16.814 53.2454 16.814ZM53.2454 14.8994C51.8393 14.8994 51.1506 15.6048 51.1506 15.6048L21.895 44.9573L33.1438 56.2434L62.3994 26.8909C62.3994 26.8909 65.1972 24.0838 59.5728 18.4263C56.7606 15.6048 54.6515 14.8994 53.2454 14.8994Z" fill="#25294C"/>
<path d="M15.7397 60.4614L17.6911 62.4336L22.4976 60.8069L17.3611 55.6389L15.7397 60.4614Z" fill="#25294C"/>
<path d="M21.2927 49.9383L28.1941 56.8625L23.0144 58.6188L19.5566 55.1494L21.2927 49.9383ZM20.4748 46.3826L17.3613 55.6389L22.4979 60.7925L31.7237 57.6687L20.4748 46.3826Z" fill="#25294C"/>
</svg>
