<svg width="42" height="42" viewBox="0 0 42 42" fill="none" xmlns="http://www.w3.org/2000/svg">
<path d="M33.2616 1.6917C33.9358 1.6917 35.3858 2.03513 37.6753 4.31193C40.4991 7.13567 40.5245 8.89097 40.1302 9.43792L15.4415 34.1393L7.86066 26.5584L32.5493 1.86978C32.6129 1.83162 32.8419 1.6917 33.2616 1.6917ZM33.2616 0C32.0151 0 31.4046 0.623259 31.4046 0.623259L5.45667 26.5584L15.4288 36.5306L41.3767 10.5954C41.3767 10.5954 43.857 8.11508 38.871 3.11629C36.3779 0.623259 34.5081 0 33.2616 0Z" fill="#252A49"/>
<path d="M0 40.2574L1.74258 42L5.99091 40.5627L1.43731 35.9963L0 40.2574Z" fill="#252A49"/>
<path d="M4.9352 30.9466L11.0533 37.0648L6.46154 38.6165L3.39613 35.5511L4.9352 30.9466ZM4.19746 27.8176L1.43732 35.9963L5.99092 40.5499L14.1696 37.7898L4.19746 27.8176Z" fill="#252A49"/>
</svg>
