<svg width="89" height="71" viewBox="0 0 89 71" fill="none" xmlns="http://www.w3.org/2000/svg">
<path d="M29.19 2.03159C31.4628 2.03159 33.3782 3.64103 33.8634 5.93645C34.1699 7.33482 35.3957 8.33742 36.8003 8.33742H79.6786C83.7392 8.33742 87.0336 11.741 87.0336 15.9361V59.0479H1.96643V14.01V6.30583V3.74656C1.96643 2.79673 2.70703 2.05797 3.60086 2.05797H29.19V2.03159ZM29.19 0H3.6264C1.63443 0 0 1.68859 0 3.74656V6.30583V14.01V60.0242C0 60.6046 0.459684 61.1059 1.04706 61.1059H87.9785C88.5403 61.1059 89.0256 60.631 89.0256 60.0242V15.9361C89.0256 10.6065 84.8373 6.30583 79.7042 6.30583H36.8003C36.3406 6.30583 35.9065 5.98922 35.8043 5.51431C35.1148 2.37458 32.4333 0 29.19 0Z" fill="#252A49"/>
<path d="M84.6075 71.0001H4.39254C1.96643 71.0001 0 68.9685 0 66.462V24.5111C0 18.4163 4.77561 13.4561 10.6749 13.4561H78.2996C84.1989 13.4561 88.9745 18.3899 88.9745 24.4847V66.4356C89 68.9685 87.0336 71.0001 84.6075 71.0001Z" fill="#252A49"/>
</svg>
