<svg width="77" height="77" viewBox="0 0 77 77" fill="none" xmlns="http://www.w3.org/2000/svg">
<path d="M76.1304 0H0V76.3827H76.1304V0Z" fill="white"/>
<path d="M17.2031 58.3452L17.0023 58.1436C10.6174 51.7376 10.6174 41.344 17.0023 34.938L29.7002 22.198C33.4881 18.3976 39.6434 18.3976 43.4312 22.198L53.0444 31.843C56.8323 35.6434 56.8323 41.8191 53.0444 45.6195L40.3464 58.3595C33.9472 64.7512 23.588 64.7512 17.2031 58.3452Z" fill="white" stroke="#25294C" stroke-width="0.8817" stroke-miterlimit="10"/>
<path d="M49.9167 48.7433L26.5725 25.3218" stroke="#25294C" stroke-width="0.8817" stroke-miterlimit="10"/>
<path d="M44.9474 34.0158L41.2341 30.2903L36.3745 35.166L40.0877 38.8916L44.9474 34.0158Z" fill="#25294C"/>
<path d="M43.1013 32.1597L48.0083 27.2364L51.1362 24.0838C52.0258 23.1913 53.5323 23.2632 54.5223 24.2421L59.7737 29.5109C61.2228 30.9648 63.4611 31.0656 64.7668 29.7412C66.0868 28.4168 65.972 26.1711 64.5372 24.7316L51.2079 11.3582" stroke="#25294C" stroke-width="0.841" stroke-miterlimit="10"/>
</svg>
