<svg width="47" height="47" viewBox="0 0 47 47" fill="none" xmlns="http://www.w3.org/2000/svg">
<path d="M4.83062 41.8889L4.6581 41.7135C-0.825648 36.1389 -0.825648 27.0942 4.6581 21.5196L15.564 10.433C18.8172 7.12584 24.1038 7.12584 27.3571 10.433L35.6135 18.8263C38.8668 22.1335 38.8668 27.5076 35.6135 30.8148L24.7076 41.9014C19.2239 47.4635 10.3267 47.4635 4.83062 41.8889Z" fill="white" stroke="#252A49" stroke-width="0.8817" stroke-miterlimit="10"/>
<path d="M32.9271 33.5332L12.8776 13.1514" stroke="#252A49" stroke-width="0.8817" stroke-miterlimit="10"/>
<path d="M28.6755 20.7149L25.4863 17.4729L21.3125 21.7159L24.5017 24.9579L28.6755 20.7149Z" fill="#252A49"/>
<path d="M27.0737 19.1019L31.2882 14.8175L33.9869 12.0741C34.751 11.2974 36.0449 11.36 36.8952 12.2119L41.4054 16.7968C42.65 18.0621 44.5724 18.1498 45.6938 16.9973C46.8275 15.8448 46.7289 13.8905 45.4966 12.6378L34.0362 1" stroke="#252A49" stroke-width="0.841" stroke-miterlimit="10"/>
</svg>
