<svg width="77" height="77" viewBox="0 0 77 77" fill="none" xmlns="http://www.w3.org/2000/svg">
<path d="M76.1304 0H0V76.3827H76.1304V0Z" fill="white"/>
<path d="M45.7126 34.3188V65.6579L55.4406 56.2288H67.5359L45.7126 34.3188Z" fill="#25294C"/>
<path d="M40.2316 13.906H37.606V16.5404H40.2316V13.906Z" fill="#25294C" stroke="#25294C" stroke-width="0.2644" stroke-miterlimit="10"/>
<path d="M59.2429 13.906H56.6172V16.5404H59.2429V13.906Z" fill="#25294C" stroke="#25294C" stroke-width="0.2644" stroke-miterlimit="10"/>
<path d="M59.2429 52.083H56.6172V54.7174H59.2429V52.083Z" fill="#25294C" stroke="#25294C" stroke-width="0.2644" stroke-miterlimit="10"/>
<path d="M21.2924 13.906H18.6667V16.5404H21.2924V13.906Z" fill="#25294C" stroke="#25294C" stroke-width="0.2644" stroke-miterlimit="10"/>
<path d="M21.2924 52.083H18.6667V54.7174H21.2924V52.083Z" fill="#25294C" stroke="#25294C" stroke-width="0.2644" stroke-miterlimit="10"/>
<path d="M59.2429 32.9944H56.6172V35.6288H59.2429V32.9944Z" fill="#25294C" stroke="#25294C" stroke-width="0.2644" stroke-miterlimit="10"/>
<path d="M21.2924 32.9944H18.6667V35.6288H21.2924V32.9944Z" fill="#25294C" stroke="#25294C" stroke-width="0.2644" stroke-miterlimit="10"/>
<path d="M40.2316 52.083H37.606V54.7174H40.2316V52.083Z" fill="#25294C" stroke="#25294C" stroke-width="0.2644" stroke-miterlimit="10"/>
<path d="M40.2317 15.2305H56.6171" stroke="#25294C" stroke-width="0.7632" stroke-miterlimit="10"/>
<path d="M57.9373 16.5549V32.9946" stroke="#25294C" stroke-width="0.7632" stroke-miterlimit="10"/>
<path d="M57.9084 35.6433V52.083" stroke="#25294C" stroke-width="0.7632" stroke-miterlimit="10"/>
<path d="M56.5741 53.4075H40.2605" stroke="#25294C" stroke-width="0.7632" stroke-miterlimit="10"/>
<path d="M37.6059 53.4075H21.2922" stroke="#25294C" stroke-width="0.7632" stroke-miterlimit="10"/>
<path d="M19.9724 52.083V35.6433" stroke="#25294C" stroke-width="0.7632" stroke-miterlimit="10"/>
<path d="M19.9724 32.9946V16.5549" stroke="#25294C" stroke-width="0.7632" stroke-miterlimit="10"/>
<path d="M21.2922 15.2305H37.6059" stroke="#25294C" stroke-width="0.7632" stroke-miterlimit="10"/>
</svg>
