<svg width="46" height="50" viewBox="0 0 46 50" fill="none" xmlns="http://www.w3.org/2000/svg">
<path d="M25.5286 20.2578V49.8235L34.6613 40.9144H45.9999L25.5286 20.2578Z" fill="#252A49"/>
<path d="M20.3906 1H17.9292V3.48531H20.3906V1Z" fill="#252A49" stroke="#252A49" stroke-width="0.2644" stroke-miterlimit="10"/>
<path d="M38.2257 1H35.7643V3.48531H38.2257V1Z" fill="#252A49" stroke="#252A49" stroke-width="0.2644" stroke-miterlimit="10"/>
<path d="M38.2257 37.0166H35.7643V39.5019H38.2257V37.0166Z" fill="#252A49" stroke="#252A49" stroke-width="0.2644" stroke-miterlimit="10"/>
<path d="M2.63694 1.00024H0.175537V3.48555H2.63694V1.00024Z" fill="#252A49" stroke="#252A49" stroke-width="0.2644" stroke-miterlimit="10"/>
<path d="M2.63621 37.0166H0.174805V39.5019H2.63621V37.0166Z" fill="#252A49" stroke="#252A49" stroke-width="0.2644" stroke-miterlimit="10"/>
<path d="M38.2257 19.0083H35.7643V21.4936H38.2257V19.0083Z" fill="#252A49" stroke="#252A49" stroke-width="0.2644" stroke-miterlimit="10"/>
<path d="M2.63621 19.0083H0.174805V21.4936H2.63621V19.0083Z" fill="#252A49" stroke="#252A49" stroke-width="0.2644" stroke-miterlimit="10"/>
<path d="M20.3906 37.0166H17.9292V39.5019H20.3906V37.0166Z" fill="#252A49" stroke="#252A49" stroke-width="0.2644" stroke-miterlimit="10"/>
<path d="M20.4041 2.24951H35.7643" stroke="#252A49" stroke-width="0.7632" stroke-miterlimit="10"/>
<path d="M37.0017 3.48535V19.0084" stroke="#252A49" stroke-width="0.7632" stroke-miterlimit="10"/>
<path d="M36.9749 21.4937V37.0167" stroke="#252A49" stroke-width="0.7632" stroke-miterlimit="10"/>
<path d="M35.7104 38.2661H20.4309" stroke="#252A49" stroke-width="0.7632" stroke-miterlimit="10"/>
<path d="M17.9292 38.2661H2.63623" stroke="#252A49" stroke-width="0.7632" stroke-miterlimit="10"/>
<path d="M1.41223 37.0167V21.4937" stroke="#252A49" stroke-width="0.7632" stroke-miterlimit="10"/>
<path d="M1.41223 19.0084V3.48535" stroke="#252A49" stroke-width="0.7632" stroke-miterlimit="10"/>
<path d="M2.63623 2.24951H17.9292" stroke="#252A49" stroke-width="0.7632" stroke-miterlimit="10"/>
</svg>
