<svg width="33" height="33" viewBox="0 0 33 33" fill="none" xmlns="http://www.w3.org/2000/svg">
<path d="M16.0337 32.1651C24.8889 32.1651 32.0674 24.9647 32.0674 16.0825C32.0674 7.20039 24.8889 0 16.0337 0C7.17853 0 0 7.20039 0 16.0825C0 24.9647 7.17853 32.1651 16.0337 32.1651Z" fill="#252A49"/>
<path d="M16.0337 9.87487C18.0517 9.87487 18.2891 9.88281 19.0885 9.9225C19.8245 9.95425 20.2281 10.0813 20.4892 10.1845C20.8454 10.3194 21.0907 10.4861 21.3598 10.7481C21.6209 11.01 21.7871 11.264 21.9217 11.6212C22.0245 11.8911 22.1512 12.288 22.1828 13.0263C22.2224 13.828 22.2303 14.0662 22.2303 16.0904C22.2303 18.1146 22.2224 18.3527 22.1828 19.1545C22.1512 19.8927 22.0245 20.2976 21.9217 20.5595C21.7871 20.9167 21.6209 21.1628 21.3598 21.4327C21.0986 21.6947 20.8454 21.8614 20.4892 21.9963C20.2202 22.0995 19.8245 22.2265 19.0885 22.2583C18.2891 22.298 18.0517 22.3059 16.0337 22.3059C14.0156 22.3059 13.7782 22.298 12.9789 22.2583C12.2429 22.2265 11.8393 22.0995 11.5781 21.9963C11.222 21.8614 10.9766 21.6947 10.7076 21.4327C10.4464 21.1707 10.2802 20.9167 10.1457 20.5595C10.0428 20.2896 9.91617 19.8927 9.88452 19.1545C9.84495 18.3527 9.83703 18.1146 9.83703 16.0904C9.83703 14.0662 9.84495 13.828 9.88452 13.0263C9.91617 12.288 10.0428 11.8832 10.1457 11.6212C10.2802 11.264 10.4464 11.018 10.7076 10.7481C10.9687 10.4861 11.222 10.3194 11.5781 10.1845C11.8472 10.0813 12.2429 9.95425 12.9789 9.9225C13.7782 9.88281 14.0156 9.87487 16.0337 9.87487ZM16.0337 8.50952C13.9839 8.50952 13.7228 8.51746 12.9156 8.55715C12.1083 8.59684 11.5623 8.72385 11.0795 8.90643C10.5809 9.09694 10.1615 9.35889 9.74206 9.77961C9.32262 10.2003 9.06146 10.621 8.87153 11.1211C8.68159 11.6054 8.55497 12.1531 8.52331 12.9628C8.48374 13.7725 8.47583 14.0265 8.47583 16.0904C8.47583 18.1543 8.48374 18.4083 8.52331 19.218C8.56288 20.0277 8.68951 20.5754 8.87153 21.0596C9.06146 21.5597 9.32262 21.9804 9.74206 22.4011C10.1615 22.8219 10.5809 23.0838 11.0795 23.2743C11.5623 23.4648 12.1083 23.5919 12.9156 23.6236C13.7228 23.6633 13.976 23.6712 16.0337 23.6712C18.0834 23.6712 18.3445 23.6633 19.1518 23.6236C19.959 23.5839 20.5051 23.4569 20.9878 23.2743C21.4864 23.0838 21.9058 22.8219 22.3253 22.4011C22.7447 21.9804 23.0059 21.5597 23.1958 21.0596C23.3857 20.5754 23.5124 20.0277 23.544 19.218C23.5836 18.4083 23.5915 18.1543 23.5915 16.0904C23.5915 14.0265 23.5836 13.7725 23.544 12.9628C23.5044 12.1531 23.3778 11.6054 23.1958 11.1211C23.0059 10.621 22.7447 10.2003 22.3253 9.77961C21.9058 9.35889 21.4864 9.09694 20.9878 8.90643C20.5051 8.71591 19.959 8.5889 19.1518 8.55715C18.3445 8.51746 18.0834 8.50952 16.0337 8.50952Z" fill="white"/>
<path d="M16.0336 12.1929C13.8889 12.1929 12.1558 13.9313 12.1558 16.0825C12.1558 18.2337 13.8889 19.9722 16.0336 19.9722C18.1783 19.9722 19.9114 18.2337 19.9114 16.0825C19.9114 13.9313 18.1783 12.1929 16.0336 12.1929ZM16.0336 18.6068C14.6407 18.6068 13.517 17.4796 13.517 16.0825C13.517 14.6854 14.6407 13.5582 16.0336 13.5582C17.4265 13.5582 18.5502 14.6854 18.5502 16.0825C18.5502 17.4796 17.4265 18.6068 16.0336 18.6068Z" fill="white"/>
<path d="M20.9719 12.042C20.9719 12.5421 20.5683 12.9549 20.0618 12.9549C19.5633 12.9549 19.1517 12.5501 19.1517 12.042C19.1517 11.534 19.5553 11.1292 20.0618 11.1292C20.5683 11.1292 20.9719 11.534 20.9719 12.042Z" fill="white"/>
</svg>
