<svg width="58" height="58" viewBox="0 0 58 58" fill="none" xmlns="http://www.w3.org/2000/svg">
<path d="M28.9999 55.3022C43.4942 55.3022 55.2441 43.5523 55.2441 29.058C55.2441 14.5637 43.4942 2.81372 28.9999 2.81372C14.5056 2.81372 2.75562 14.5637 2.75562 29.058C2.75562 43.5523 14.5056 55.3022 28.9999 55.3022Z" fill="#E2E2E2"/>
<path d="M30.7556 1H27.1281V4.62757H30.7556V1Z" fill="white" stroke="#25294C" stroke-width="1.0819" stroke-miterlimit="10"/>
<path d="M57 1H53.3724V4.62757H57V1Z" stroke="#25294C" stroke-width="1.0819" stroke-miterlimit="10"/>
<path d="M57 53.4885H53.3724V57.1161H57V53.4885Z" stroke="#25294C" stroke-width="1.0819" stroke-miterlimit="10"/>
<path d="M4.62757 1H1V4.62757H4.62757V1Z" stroke="#25294C" stroke-width="1.0819" stroke-miterlimit="10"/>
<path d="M4.62757 53.4885H1V57.1161H4.62757V53.4885Z" stroke="#25294C" stroke-width="1.0819" stroke-miterlimit="10"/>
<path d="M57 27.2441H53.3724V30.8717H57V27.2441Z" fill="white" stroke="#25294C" stroke-width="1.0819" stroke-miterlimit="10"/>
<path d="M4.62757 27.2441H1V30.8717H4.62757V27.2441Z" fill="white" stroke="#25294C" stroke-width="1.0819" stroke-miterlimit="10"/>
<path d="M30.7556 53.4885H27.1281V57.1161H30.7556V53.4885Z" fill="white" stroke="#25294C" stroke-width="1.0819" stroke-miterlimit="10"/>
<path d="M30.7556 2.81372H53.3723" stroke="#25294C" stroke-width="1.0819" stroke-miterlimit="10"/>
<path d="M55.1862 4.62744V27.2441" stroke="#25294C" stroke-width="1.0819" stroke-miterlimit="10"/>
<path d="M55.1476 30.8718V53.4885" stroke="#25294C" stroke-width="1.0819" stroke-miterlimit="10"/>
<path d="M29.8899 35.0846C29.9769 35.1619 30.1559 35.2248 30.4413 35.2829L31.4328 35.5102V36.018H25.5465C25.0386 36.018 24.671 35.8875 24.4437 35.6214C24.2163 35.3554 24.1051 34.9636 24.1051 34.4316V25.8318C24.1051 24.9806 23.9697 24.3808 23.694 24.0229C23.4183 23.665 22.9636 23.486 22.3203 23.486C21.1885 23.486 20.0277 23.96 18.8427 24.9032V34.6638C18.8427 34.8717 18.8862 35.0168 18.9685 35.1039C19.0507 35.191 19.2296 35.2587 19.4908 35.3167L20.4533 35.515V36.0229H11.515V35.515L12.5065 35.2877C12.7919 35.2297 12.9709 35.1668 13.0579 35.0894C13.145 35.0168 13.1837 34.8717 13.1837 34.6638V23.9648C13.1837 23.7569 13.1402 23.6166 13.0579 23.5392C12.9709 23.4667 12.7919 23.3989 12.5065 23.3409L11.515 23.1136V22.6057L18.3058 21.7593H18.7847V24.0519C19.5005 23.4667 20.376 22.9685 21.4159 22.5525C22.4558 22.1365 23.6021 21.9286 24.8693 21.9286C26.6202 21.9286 27.8778 22.2962 28.6323 23.0313C29.3868 23.7665 29.7641 24.8693 29.7641 26.3397V34.6589C29.7641 34.8669 29.8076 35.0072 29.8899 35.0846Z" fill="#25294C"/>
<path d="M41.6045 35.2828C42.0302 35.0168 42.243 34.5573 42.243 33.8947C42.243 33.44 42.1317 33.0724 41.9044 32.7919C41.6771 32.5113 41.3192 32.255 40.8306 32.0277C40.3373 31.8003 39.5586 31.4908 38.48 31.0942C36.6517 30.4315 35.3506 29.7496 34.5767 29.0434C33.8028 28.3372 33.4159 27.3602 33.4159 26.1171C33.4159 24.7048 33.9431 23.6504 34.9975 22.9636C36.0519 22.2768 37.6577 21.9333 39.8053 21.9333C40.8984 21.9333 41.9721 22.0446 43.0314 22.2574C44.0858 22.4751 44.908 22.7217 45.4933 23.0071L45.1547 26.4025H44.6759C44.168 25.1401 43.5537 24.1824 42.8379 23.5295C42.1221 22.8765 41.087 22.5525 39.7279 22.5525C38.8621 22.5525 38.1898 22.6685 37.7206 22.9055C37.2466 23.1425 37.0144 23.573 37.0144 24.1921C37.0144 24.6274 37.1209 24.9757 37.3385 25.2417C37.5562 25.5077 37.8947 25.7496 38.3591 25.9769C38.8186 26.2042 39.5876 26.5331 40.6662 26.9684C42.214 27.5924 43.3796 28.1292 44.1728 28.5791C44.9661 29.0337 45.5465 29.5512 45.9238 30.1365C46.301 30.7217 46.4897 31.4569 46.4897 32.3421C46.4897 33.7592 45.9479 34.7798 44.8645 35.4134C43.7811 36.0422 42.1511 36.3614 39.9842 36.3614C38.8331 36.3614 37.6335 36.2502 36.376 36.0373C35.1233 35.8197 34.1849 35.573 33.561 35.2876L33.9576 31.4424H34.4365C34.775 32.9321 35.3796 34.0107 36.2454 34.683C37.1112 35.3505 38.243 35.6891 39.6408 35.6891C40.5211 35.6794 41.1789 35.5488 41.6045 35.2828Z" fill="#25294C"/>
<path d="M53.3 55.3022H30.7994" stroke="#25294C" stroke-width="1.0819" stroke-miterlimit="10"/>
<path d="M27.1282 55.3022H4.62756" stroke="#25294C" stroke-width="1.0819" stroke-miterlimit="10"/>
<path d="M2.81384 53.4885V30.8718" stroke="#25294C" stroke-width="1.0819" stroke-miterlimit="10"/>
<path d="M2.81384 27.2441V4.62744" stroke="#25294C" stroke-width="1.0819" stroke-miterlimit="10"/>
<path d="M4.62756 2.81372H27.1282" stroke="#25294C" stroke-width="1.0819" stroke-miterlimit="10"/>
</svg>
