<svg width="53" height="40" viewBox="0 0 53 40" fill="none" xmlns="http://www.w3.org/2000/svg">
<path d="M17.0548 1.14456C18.3828 1.14456 19.5019 2.05128 19.7854 3.34448C19.9644 4.13229 20.6806 4.69714 21.5013 4.69714H46.5538C48.9263 4.69714 50.8511 6.61464 50.8511 8.97808V33.2664H1.14892V7.89298V3.55258V2.11074C1.14892 1.57562 1.58164 1.15942 2.10387 1.15942H17.0548V1.14456ZM17.0548 0H2.11879C0.95495 0 0 0.951319 0 2.11074V3.55258V7.89298V33.8164C0 34.1434 0.26858 34.4259 0.611765 34.4259H51.4032C51.7314 34.4259 52.0149 34.1583 52.0149 33.8164V8.97808C52.0149 5.97547 49.5679 3.55258 46.5687 3.55258H21.5013C21.2327 3.55258 20.9791 3.37421 20.9194 3.10665C20.5165 1.33779 18.9498 0 17.0548 0Z" fill="#252A49"/>
<path d="M49.4336 40H2.56643C1.14892 40 0 38.8554 0 37.4433V13.809C0 10.3753 2.79024 7.58081 6.23702 7.58081H45.7481C49.1948 7.58081 51.9851 10.3604 51.9851 13.7941V37.4285C52 38.8554 50.8511 40 49.4336 40Z" fill="#252A49"/>
</svg>
