<svg width="17" height="17" viewBox="0 0 17 17" fill="none" xmlns="http://www.w3.org/2000/svg">
<path d="M16.6934 15.2189L11.7288 10.2637C12.5064 9.19901 12.9699 7.89056 12.9699 6.47265C12.9699 2.90548 10.0639 0 6.48497 0C2.90603 0 0 2.9005 0 6.47265C0 10.0448 2.90603 12.9453 6.48497 12.9453C7.88565 12.9453 9.18663 12.4925 10.2484 11.7363L15.218 16.6965C15.4224 16.9005 15.6915 17 15.9557 17C16.2199 17 16.4891 16.9005 16.6934 16.6965C17.1022 16.2836 17.1022 15.6269 16.6934 15.2189ZM1.37077 6.47761C1.37077 3.66169 3.66867 1.36816 6.48996 1.36816C9.31124 1.36816 11.6091 3.66169 11.6091 6.47761C11.6091 9.29353 9.31124 11.5871 6.48996 11.5871C3.66867 11.5871 1.37077 9.29353 1.37077 6.47761Z" fill="#252A49"/>
</svg>
