<svg width="33" height="33" viewBox="0 0 33 33" fill="none" xmlns="http://www.w3.org/2000/svg">
<path d="M16.9663 32.1651C25.8215 32.1651 33 24.9647 33 16.0825C33 7.20039 25.8215 0 16.9663 0C8.11115 0 0.932617 7.20039 0.932617 16.0825C0.932617 24.9647 8.11115 32.1651 16.9663 32.1651Z" fill="#252A49"/>
<path d="M9.27399 20.9326C10.6668 21.8296 12.3288 22.3535 14.1094 22.3535C19.9657 22.3535 23.2817 17.3923 23.0838 12.939C23.7011 12.4945 24.2393 11.9388 24.6587 11.3038C24.0889 11.5578 23.4875 11.7245 22.8464 11.8039C23.4954 11.4149 24.0019 10.7957 24.2314 10.0495C23.622 10.4147 22.9493 10.6766 22.2291 10.8195C21.6514 10.2004 20.8363 9.81934 19.9262 9.81934C17.8923 9.81934 16.3886 11.7245 16.8556 13.709C14.236 13.574 11.9093 12.3198 10.3503 10.3988C9.52723 11.8197 9.92293 13.6852 11.3237 14.6219C10.8093 14.606 10.3186 14.4631 9.89127 14.225C9.85962 15.6935 10.9043 17.0668 12.4237 17.3684C11.9806 17.4875 11.4899 17.5193 10.9992 17.424C11.4028 18.6782 12.5662 19.599 13.9432 19.6229C12.6137 20.6627 10.9438 21.1311 9.27399 20.9326Z" fill="white"/>
</svg>
