<svg width="58" height="35" viewBox="0 0 58 35" fill="none" xmlns="http://www.w3.org/2000/svg">
<path d="M13.0131 0H19.3178L32.362 34.3236H26.0107L22.8273 25.2315H9.30174L6.11834 34.3236H0L13.0131 0ZM10.9167 20.6697H21.2589L16.181 5.91461H16.0412L10.9167 20.6697Z" fill="#252A49"/>
<path d="M55.3912 28.8022C55.3912 29.4786 55.4844 29.9505 55.6552 30.2494C55.826 30.5325 56.1676 30.6898 56.6801 30.6898C56.8354 30.6898 57.0217 30.6898 57.2546 30.6898C57.472 30.6898 57.736 30.6584 58.0156 30.5955V34.3865C57.8292 34.4494 57.5807 34.528 57.2857 34.6067C56.9907 34.6853 56.6801 34.764 56.354 34.8269C56.0434 34.8898 55.7173 34.937 55.4067 34.9685C55.0961 35 54.8166 35.0157 54.5992 35.0157C53.4967 35.0157 52.5805 34.7955 51.8506 34.3393C51.1208 33.8831 50.6394 33.1123 50.422 31.9797C49.3505 33.0337 48.0306 33.8044 46.4621 34.2921C44.8937 34.764 43.3874 35.0157 41.9277 35.0157C40.8252 35.0157 39.7537 34.8584 38.7443 34.5595C37.735 34.2606 36.8343 33.8044 36.0579 33.2067C35.2814 32.6089 34.6603 31.8539 34.2099 30.9415C33.7441 30.0292 33.5267 28.9595 33.5267 27.7483C33.5267 26.2067 33.8062 24.964 34.3652 24.0044C34.9243 23.0449 35.6386 22.2898 36.5548 21.7393C37.4555 21.1887 38.4648 20.7955 39.5984 20.5595C40.7165 20.3235 41.8501 20.1348 42.9992 20.0089C43.9775 19.8202 44.9093 19.6786 45.7944 19.6C46.6795 19.5213 47.456 19.3797 48.1393 19.191C48.8225 19.0022 49.366 18.7033 49.7542 18.2943C50.158 17.8853 50.3443 17.2876 50.3443 16.4853C50.3443 15.7775 50.1735 15.1955 49.8474 14.755C49.5213 14.2988 49.102 13.9528 48.6206 13.7168C48.1237 13.4809 47.5802 13.3235 46.9901 13.2449C46.3845 13.1662 45.8255 13.1191 45.282 13.1191C43.7601 13.1191 42.5178 13.4337 41.5395 14.0786C40.5612 14.7235 40.0022 15.7146 39.8779 17.0674H34.4739C34.5671 15.4629 34.9398 14.1415 35.6075 13.0719C36.2753 12.0179 37.1138 11.1685 38.1387 10.5235C39.1636 9.87861 40.3283 9.43816 41.6327 9.17074C42.9216 8.91906 44.2571 8.79321 45.6236 8.79321C46.8193 8.79321 48.015 8.91906 49.1797 9.17074C50.3443 9.42243 51.4003 9.84714 52.332 10.4134C53.2638 10.9955 54.0247 11.7348 54.5837 12.6471C55.1583 13.5595 55.4378 14.6764 55.4378 15.982V28.8022H55.3912ZM49.9872 21.8809C49.1641 22.4314 48.1548 22.746 46.9435 22.8561C45.7478 22.9662 44.5366 23.1393 43.3409 23.3595C42.7663 23.4539 42.2228 23.5955 41.6793 23.7685C41.1358 23.9415 40.6699 24.1775 40.2506 24.4921C39.8469 24.791 39.5208 25.2 39.2723 25.6876C39.0394 26.191 38.9152 26.7887 38.9152 27.4966C38.9152 28.1101 39.086 28.6134 39.4431 29.0382C39.7848 29.4471 40.204 29.7775 40.701 30.0292C41.1979 30.2651 41.7259 30.4382 42.316 30.5325C42.9061 30.6269 43.434 30.6741 43.8999 30.6741C44.5055 30.6741 45.1577 30.5955 45.841 30.4382C46.5243 30.2809 47.192 29.9977 47.8131 29.6202C48.4343 29.2426 48.9467 28.755 49.3505 28.1573C49.7542 27.5595 49.9716 26.8359 49.9716 25.9707V21.8809H49.9872Z" fill="#252A49"/>
</svg>
