<svg width="77" height="77" viewBox="0 0 77 77" fill="none" xmlns="http://www.w3.org/2000/svg">
<path d="M76.1304 0H0V76.3828H76.1304V0Z" fill="white"/>
<path d="M23.2868 22.1836H29.1121L41.1644 53.5946H35.2961L32.3547 45.274H19.8576L16.9163 53.5946H11.2632L23.2868 22.1836ZM21.3642 41.0993H30.9199L26.2281 27.5963H26.099L21.3642 41.0993Z" fill="#25294C"/>
<path d="M62.4424 48.5274C62.4424 49.1464 62.5285 49.5783 62.6864 49.8518C62.8442 50.111 63.1598 50.2549 63.6333 50.2549C63.7768 50.2549 63.949 50.2549 64.1642 50.2549C64.3651 50.2549 64.609 50.2261 64.8672 50.1685V53.6378C64.6951 53.6954 64.4655 53.7674 64.1929 53.8394C63.9203 53.9114 63.6333 53.9833 63.332 54.0409C63.0451 54.0985 62.7437 54.1417 62.4568 54.1705C62.1698 54.1993 61.9116 54.2137 61.7107 54.2137C60.692 54.2137 59.8455 54.0121 59.1711 53.5946C58.4967 53.1772 58.052 52.4718 57.8511 51.4353C56.8611 52.3998 55.6415 53.1052 54.1923 53.5515C52.7432 53.9833 51.3514 54.2137 50.0027 54.2137C48.984 54.2137 47.994 54.0697 47.0614 53.7962C46.1288 53.5227 45.2966 53.1052 44.5792 52.5582C43.8618 52.0111 43.2879 51.3201 42.8718 50.4852C42.4413 49.6503 42.2405 48.6714 42.2405 47.5629C42.2405 46.1521 42.4987 45.0149 43.0153 44.1368C43.5318 43.2587 44.1918 42.5677 45.0383 42.0638C45.8705 41.56 46.8031 41.2001 47.8505 40.9842C48.8836 40.7683 49.931 40.5955 50.9927 40.4803C51.8967 40.3076 52.7576 40.178 53.5754 40.106C54.3932 40.0341 55.1106 39.9045 55.7419 39.7318C56.3732 39.559 56.8754 39.2855 57.2341 38.9112C57.6072 38.5369 57.7793 37.9899 57.7793 37.2557C57.7793 36.6079 57.6215 36.0753 57.3202 35.6722C57.0189 35.2548 56.6315 34.9381 56.1867 34.7221C55.7276 34.5062 55.2254 34.3622 54.6802 34.2902C54.1206 34.2183 53.6041 34.1751 53.1019 34.1751C51.6958 34.1751 50.548 34.463 49.644 35.0532C48.7401 35.6434 48.2236 36.5504 48.1088 37.7884H43.1157C43.2018 36.32 43.5461 35.1108 44.1631 34.1319C44.7801 33.1674 45.5549 32.39 46.5018 31.7998C47.4488 31.2096 48.5249 30.8065 49.7301 30.5618C50.921 30.3315 52.1549 30.2163 53.4176 30.2163C54.5224 30.2163 55.6271 30.3315 56.7032 30.5618C57.7793 30.7921 58.755 31.1808 59.6159 31.699C60.4768 32.2317 61.1798 32.9083 61.6963 33.7432C62.2272 34.5782 62.4855 35.6002 62.4855 36.7951V48.5274H62.4424ZM57.4493 42.1934C56.6889 42.6972 55.7563 42.9852 54.6371 43.0859C53.5323 43.1867 52.4132 43.3451 51.3084 43.5466C50.7775 43.633 50.2753 43.7625 49.7732 43.9208C49.271 44.0792 48.8406 44.2952 48.4532 44.5831C48.0801 44.8566 47.7788 45.2308 47.5492 45.6771C47.334 46.1378 47.2192 46.6848 47.2192 47.3326C47.2192 47.894 47.3771 48.3547 47.7071 48.7434C48.0371 49.132 48.4101 49.42 48.8692 49.6503C49.3284 49.8662 49.8162 50.0246 50.3614 50.1109C50.9067 50.1973 51.3945 50.2405 51.8249 50.2405C52.3845 50.2405 52.9871 50.1685 53.6184 50.0246C54.2641 49.8806 54.8667 49.6215 55.4406 49.276C56.0145 48.9305 56.488 48.4842 56.8611 47.9372C57.2341 47.3902 57.435 46.728 57.435 45.9363V42.1934H57.4493Z" fill="#25294C"/>
</svg>
